<?xml version="1.0" encoding="UTF-8" standalone="no"?>
<svg
   xmlns:dc="http://purl.org/dc/elements/1.1/"
   xmlns:cc="http://creativecommons.org/ns#"
   xmlns:rdf="http://www.w3.org/1999/02/22-rdf-syntax-ns#"
   xmlns:svg="http://www.w3.org/2000/svg"
   xmlns="http://www.w3.org/2000/svg"
   xmlns:sodipodi="http://sodipodi.sourceforge.net/DTD/sodipodi-0.dtd"
   xmlns:inkscape="http://www.inkscape.org/namespaces/inkscape"
   width="221.71922mm"
   height="65.958832mm"
   viewBox="0 0 221.71922 65.958832"
   version="1.1"
   id="svg8"
   sodipodi:docname="text-banner.svg"
   inkscape:version="1.0.1 (c497b03c, 2020-09-10)">
  <defs
     id="defs2" />
  <sodipodi:namedview
     id="base"
     pagecolor="#ffffff"
     bordercolor="#666666"
     borderopacity="1.0"
     inkscape:pageopacity="0.0"
     inkscape:pageshadow="2"
     inkscape:zoom="0.63428732"
     inkscape:cx="378.92127"
     inkscape:cy="261.1827"
     inkscape:document-units="mm"
     inkscape:current-layer="layer1"
     inkscape:document-rotation="0"
     showgrid="false"
     fit-margin-top="0"
     fit-margin-left="0"
     fit-margin-right="0"
     fit-margin-bottom="0"
     inkscape:window-width="1252"
     inkscape:window-height="855"
     inkscape:window-x="0"
     inkscape:window-y="203"
     inkscape:window-maximized="0" />
  <metadata
     id="metadata5">
    <rdf:RDF>
      <cc:Work
         rdf:about="">
        <dc:format>image/svg+xml</dc:format>
        <dc:type
           rdf:resource="http://purl.org/dc/dcmitype/StillImage" />
        <dc:title></dc:title>
      </cc:Work>
    </rdf:RDF>
  </metadata>
  <g
     inkscape:label="Layer 1"
     inkscape:groupmode="layer"
     id="layer1"
     transform="translate(-50.329421,-19.627154)">
    <path
       d="m 50.899066,65.109795 h 10.053405 q 3.284378,0 4.913216,1.562084 1.64219,1.562083 1.64219,4.445927 0,2.963952 -1.789052,4.632844 -1.7757,1.668891 -5.433911,1.668891 h -3.311082 v 7.263018 h -6.074766 z m 6.074766,8.34446 h 1.481976 q 1.748998,0 2.456608,-0.600802 0.707611,-0.614151 0.707611,-1.562082 0,-0.921229 -0.614152,-1.562082 -0.614153,-0.640855 -2.309746,-0.640855 h -1.722297 z"
       style="font-style:normal;font-variant:normal;font-weight:normal;font-stretch:normal;font-size:26.3279px;line-height:1;font-family:'Arial Black';-inkscape-font-specification:'Arial Black, ';letter-spacing:-1.097px;word-spacing:0px;fill:#ff8c01;fill-opacity:1;stroke:#000000;stroke-width:1.13929;stroke-miterlimit:4;stroke-dasharray:none;stroke-opacity:1"
       id="path898" />
    <path
       d="M 68.527109,84.682559 V 65.109795 h 10.080107 q 2.803737,0 4.285713,0.480642 1.481976,0.480641 2.389854,1.789052 0.907877,1.295059 0.907877,3.164218 0,1.628839 -0.69426,2.817089 -0.694259,1.1749 -1.909212,1.909212 -0.774365,0.467291 -2.122831,0.774366 1.081443,0.360482 1.575434,0.720961 0.333779,0.240322 0.961282,1.028038 0.640855,0.787717 0.854473,1.214954 l 2.923898,5.674232 H 80.943663 L 77.712689,78.70125 Q 77.098537,77.539701 76.617896,77.192572 75.96369,76.738633 75.13592,76.738633 h -0.534045 v 7.943926 z m 6.074766,-11.64219 h 2.550067 q 0.413885,0 1.602136,-0.267023 0.600801,-0.12016 0.974633,-0.614152 0.387183,-0.493991 0.387183,-1.134847 0,-0.947929 -0.600802,-1.455272 -0.600801,-0.507344 -2.256341,-0.507344 h -2.656876 z"
       style="font-style:normal;font-variant:normal;font-weight:normal;font-stretch:normal;font-size:26.3279px;line-height:1;font-family:'Arial Black';-inkscape-font-specification:'Arial Black, ';letter-spacing:-1.097px;word-spacing:0px;fill:#ff8c01;fill-opacity:1;stroke:#000000;stroke-width:1.13929;stroke-miterlimit:4;stroke-dasharray:none;stroke-opacity:1"
       id="path900" />
    <path
       d="m 86.70255,74.909529 q 0,-4.793058 2.670227,-7.463284 2.670226,-2.670227 7.436581,-2.670227 4.886512,0 7.530022,2.630173 2.64353,2.616822 2.64353,7.343124 0,3.431241 -1.16155,5.634179 -1.1482,2.189585 -3.33777,3.417889 -2.17624,1.214954 -5.433912,1.214954 -3.311081,0 -5.487316,-1.05474 -2.162883,-1.054739 -3.511348,-3.337783 -1.348464,-2.283043 -1.348464,-5.714285 z m 6.048064,0.0267 q 0,2.963952 1.094791,4.259011 1.108145,1.29506 3.004006,1.29506 1.949265,0 3.017354,-1.268358 1.068095,-1.268357 1.068095,-4.552737 0,-2.763684 -1.121498,-4.032042 -1.108143,-1.281709 -3.017355,-1.281709 -1.829106,0 -2.937249,1.295061 -1.108144,1.295059 -1.108144,4.285714 z"
       style="font-style:normal;font-variant:normal;font-weight:normal;font-stretch:normal;font-size:26.3279px;line-height:1;font-family:'Arial Black';-inkscape-font-specification:'Arial Black, ';letter-spacing:-1.097px;word-spacing:0px;fill:#ff8c01;fill-opacity:1;stroke:#000000;stroke-width:1.13929;stroke-miterlimit:4;stroke-dasharray:none;stroke-opacity:1"
       id="path902" />
    <path
       d="M 118.4182,77.593106 V 73.52101 h 9.34579 v 8.344459 q -2.68358,1.829106 -4.753,2.496662 -2.05607,0.654206 -4.88652,0.654206 -3.48464,0 -5.68758,-1.188251 -2.18959,-1.188251 -3.40454,-3.538051 -1.2016,-2.3498 -1.2016,-5.393858 0,-3.204272 1.32177,-5.567424 1.32176,-2.376501 3.87182,-3.604805 1.98932,-0.94793 5.3538,-0.94793 3.24433,0 4.84647,0.587449 1.61549,0.58745 2.67023,1.829106 1.06809,1.228305 1.60214,3.124165 l -5.83445,1.041389 q -0.36049,-1.108144 -1.22831,-1.695594 -0.85447,-0.58745 -2.18958,-0.58745 -1.98933,0 -3.17758,1.388518 -1.1749,1.375166 -1.1749,4.36582 0,3.17757 1.18826,4.539386 1.20159,1.361816 3.33778,1.361816 1.01468,0 1.93592,-0.293725 0.92122,-0.293726 2.10947,-1.001336 v -1.842456 z"
       style="font-style:normal;font-variant:normal;font-weight:normal;font-stretch:normal;font-size:26.3279px;line-height:1;font-family:'Arial Black';-inkscape-font-specification:'Arial Black, ';letter-spacing:-1.097px;word-spacing:0px;fill:#ff8c01;fill-opacity:1;stroke:#000000;stroke-width:1.13929;stroke-miterlimit:4;stroke-dasharray:none;stroke-opacity:1"
       id="path904" />
    <path
       d="M 129.22381,84.682559 V 65.109795 h 10.08011 q 2.80373,0 4.28571,0.480642 1.48197,0.480641 2.38985,1.789052 0.90788,1.295059 0.90788,3.164218 0,1.628839 -0.69426,2.817089 -0.69427,1.1749 -1.90922,1.909212 -0.77436,0.467291 -2.12282,0.774366 1.08144,0.360482 1.57543,0.720961 0.33378,0.240322 0.96128,1.028038 0.64086,0.787717 0.85447,1.214954 l 2.9239,5.674232 h -6.83578 l -3.23098,-5.981309 q -0.61414,-1.161549 -1.09479,-1.508678 -0.65421,-0.453939 -1.48197,-0.453939 h -0.53405 v 7.943926 z m 6.07476,-11.64219 h 2.55007 q 0.41389,0 1.60213,-0.267023 0.6008,-0.12016 0.97463,-0.614152 0.38719,-0.493991 0.38719,-1.134847 0,-0.947929 -0.6008,-1.455272 -0.6008,-0.507344 -2.25634,-0.507344 h -2.65688 z"
       style="font-style:normal;font-variant:normal;font-weight:normal;font-stretch:normal;font-size:26.3279px;line-height:1;font-family:'Arial Black';-inkscape-font-specification:'Arial Black, ';letter-spacing:-1.097px;word-spacing:0px;fill:#ff8c01;fill-opacity:1;stroke:#000000;stroke-width:1.13929;stroke-miterlimit:4;stroke-dasharray:none;stroke-opacity:1"
       id="path906" />
    <path
       d="m 162.95085,81.451583 h -6.88919 l -0.94792,3.230976 h -6.18157 l 7.35647,-19.572764 h 6.59545 l 7.35648,19.572764 h -6.32844 z m -1.26835,-4.232309 -2.16289,-7.036047 -2.14954,7.036047 z"
       style="font-style:normal;font-variant:normal;font-weight:normal;font-stretch:normal;font-size:26.3279px;line-height:1;font-family:'Arial Black';-inkscape-font-specification:'Arial Black, ';letter-spacing:-1.097px;word-spacing:0px;fill:#ff8c01;fill-opacity:1;stroke:#000000;stroke-width:1.13929;stroke-miterlimit:4;stroke-dasharray:none;stroke-opacity:1"
       id="path908" />
    <path
       d="m 170.95708,65.109795 h 7.95727 l 3.07077,11.909212 3.0574,-11.909212 h 7.93057 v 19.572764 h -4.93991 V 69.755991 l -3.83177,14.926568 h -4.47264 l -3.81842,-14.926568 v 14.926568 h -4.95327 z"
       style="font-style:normal;font-variant:normal;font-weight:normal;font-stretch:normal;font-size:26.3279px;line-height:1;font-family:'Arial Black';-inkscape-font-specification:'Arial Black, ';letter-spacing:-1.097px;word-spacing:0px;fill:#ff8c01;fill-opacity:1;stroke:#000000;stroke-width:1.13929;stroke-miterlimit:4;stroke-dasharray:none;stroke-opacity:1"
       id="path910" />
    <path
       d="m 194.51302,65.109795 h 7.95728 l 3.07076,11.909212 3.05742,-11.909212 h 7.93057 v 19.572764 h -4.93993 V 69.755991 l -3.83177,14.926568 h -4.47263 l -3.81843,-14.926568 v 14.926568 h -4.95327 z"
       style="font-style:normal;font-variant:normal;font-weight:normal;font-stretch:normal;font-size:26.3279px;line-height:1;font-family:'Arial Black';-inkscape-font-specification:'Arial Black, ';letter-spacing:-1.097px;word-spacing:0px;fill:#ff8c01;fill-opacity:1;stroke:#000000;stroke-width:1.13929;stroke-miterlimit:4;stroke-dasharray:none;stroke-opacity:1"
       id="path912" />
    <path
       d="m 218.12236,65.109795 h 16.20828 v 4.178906 h -10.14686 v 3.110815 h 9.41255 v 3.991988 h -9.41255 v 3.858478 h 10.44059 v 4.432577 h -16.50201 z"
       style="font-style:normal;font-variant:normal;font-weight:normal;font-stretch:normal;font-size:26.3279px;line-height:1;font-family:'Arial Black';-inkscape-font-specification:'Arial Black, ';letter-spacing:-1.097px;word-spacing:0px;fill:#ff8c01;fill-opacity:1;stroke:#000000;stroke-width:1.13929;stroke-miterlimit:4;stroke-dasharray:none;stroke-opacity:1"
       id="path914" />
    <path
       d="M 235.9748,84.682696 V 65.109933 h 10.08011 q 2.80374,0 4.28572,0.480642 1.48197,0.480641 2.38985,1.789052 0.90787,1.29506 0.90787,3.164218 0,1.628839 -0.69426,2.81709 -0.69426,1.1749 -1.90921,1.909212 -0.77436,0.46729 -2.12283,0.774366 1.08145,0.36048 1.57544,0.720961 0.33377,0.240321 0.96128,1.028037 0.64086,0.787717 0.85446,1.214954 l 2.92391,5.674231 h -6.83577 l -3.23099,-5.981307 q -0.61416,-1.161549 -1.09479,-1.50868 -0.6542,-0.453938 -1.48197,-0.453938 h -0.53405 v 7.943925 z m 6.07477,-11.642188 h 2.55007 q 0.41388,0 1.60214,-0.267023 0.6008,-0.12016 0.97463,-0.614153 0.38718,-0.493991 0.38718,-1.134846 0,-0.94793 -0.6008,-1.455273 -0.60081,-0.507343 -2.25634,-0.507343 h -2.65688 z"
       style="font-style:normal;font-variant:normal;font-weight:normal;font-stretch:normal;font-size:26.3279px;line-height:1;font-family:'Arial Black';-inkscape-font-specification:'Arial Black, ';letter-spacing:-1.097px;word-spacing:0px;fill:#ff8c01;fill-opacity:1;stroke:#000000;stroke-width:1.13929;stroke-miterlimit:4;stroke-dasharray:none;stroke-opacity:1"
       id="path916" />
    <path
       d="m 253.61876,78.207257 5.75434,-0.360479 q 0.18691,1.401868 0.76101,2.136181 0.93458,1.188252 2.67023,1.188252 1.29505,0 1.98933,-0.600801 0.70759,-0.614154 0.70759,-1.415221 0,-0.761015 -0.66755,-1.361816 -0.66756,-0.600801 -3.09747,-1.134846 -3.97862,-0.894526 -5.67422,-2.376502 -1.70895,-1.481976 -1.70895,-3.778372 0,-1.508677 0.86783,-2.84379 0.88117,-1.348466 2.63017,-2.10948 1.76234,-0.774365 4.81976,-0.774365 3.75168,0 5.71428,1.401868 1.97598,1.388518 2.34981,4.432576 l -5.70094,0.333779 q -0.22697,-1.321762 -0.96128,-1.922563 -0.72096,-0.6008 -2.00267,-0.6008 -1.05475,0 -1.58878,0.453938 -0.53405,0.440587 -0.53405,1.081441 0,0.46729 0.44059,0.841121 0.42723,0.387184 2.02937,0.720962 3.96528,0.854473 5.67422,1.735648 1.72231,0.867823 2.49667,2.162884 0.78772,1.295059 0.78772,2.897196 0,1.882509 -1.04139,3.471294 -1.04139,1.588786 -2.91055,2.416555 -1.86915,0.81442 -4.71295,0.81442 -4.99332,0 -6.91589,-1.922564 -1.92256,-1.922562 -2.17623,-4.886516 z"
       style="font-style:normal;font-variant:normal;font-weight:normal;font-stretch:normal;font-size:26.3279px;line-height:1;font-family:'Arial Black';-inkscape-font-specification:'Arial Black, ';letter-spacing:-1.097px;word-spacing:0px;fill:#ff8c01;fill-opacity:1;stroke:#000000;stroke-width:1.13929;stroke-miterlimit:4;stroke-dasharray:none;stroke-opacity:1"
       id="path918" />
    <g
       aria-label="LGBTQ+"
       id="text12-0"
       style="font-weight:900;font-size:50.3777px;line-height:1;font-family:Chivo;-inkscape-font-specification:'Chivo Heavy';letter-spacing:0px;fill:#ff8c01;fill-opacity:1;stroke:#000000;stroke-width:2.09906;stroke-miterlimit:4;stroke-dasharray:none;stroke-opacity:1">
      <path
         d="m 51.482212,21.291646 h 11.143114 v 27.181328 h 17.39113 v 8.880053 H 51.482212 Z"
         style="font-style:normal;font-variant:normal;font-weight:normal;font-stretch:normal;font-size:50.3777px;font-family:'Arial Black';-inkscape-font-specification:'Arial Black, ';fill:#ff8c01;fill-opacity:1;stroke:#000000;stroke-width:2.09906;stroke-miterlimit:4;stroke-dasharray:none;stroke-opacity:1"
         id="path1081" />
      <path
         d="m 103.26203,44.291231 v -7.502539 h 17.21894 v 15.374055 q -4.9443,3.369992 -8.75706,4.599917 -3.78817,1.205326 -9.00305,1.205326 -6.420205,0 -10.478956,-2.189266 -4.034152,-2.189265 -6.272614,-6.518599 -2.213864,-4.329333 -2.213864,-9.937788 0,-5.903637 2.435251,-10.257569 2.43525,-4.378531 7.133561,-6.641592 3.665174,-1.746492 9.863992,-1.746492 5.97743,0 8.92925,1.082333 2.97642,1.082333 4.9197,3.369993 1.96788,2.263061 2.95182,5.756046 l -10.74954,1.918682 q -0.66416,-2.041675 -2.26306,-3.124008 -1.57431,-1.082334 -4.03415,-1.082334 -3.665178,0 -5.854444,2.558243 -2.164667,2.533644 -2.164667,8.043705 0,5.85444 2.189266,8.363486 2.213863,2.509045 6.149625,2.509045 1.86948,0 3.56678,-0.541166 1.69729,-0.541167 3.88656,-1.844887 v -3.394591 z"
         style="font-style:normal;font-variant:normal;font-weight:normal;font-stretch:normal;font-size:50.3777px;font-family:'Arial Black';-inkscape-font-specification:'Arial Black, ';fill:#ff8c01;fill-opacity:1;stroke:#000000;stroke-width:2.09906;stroke-miterlimit:4;stroke-dasharray:none;stroke-opacity:1"
         id="path1083" />
      <path
         d="m 127.17176,21.291646 h 20.85951 q 5.21488,0 7.99451,2.582841 2.80423,2.582841 2.80423,6.395606 0,3.197804 -1.99248,5.485463 -1.32832,1.525106 -3.88656,2.410652 3.88656,0.934742 5.70685,3.222401 1.84489,2.263061 1.84489,5.706849 0,2.804228 -1.30372,5.04269 -1.30372,2.238462 -3.56678,3.542182 -1.40212,0.81175 -4.23094,1.180728 -3.76357,0.491969 -4.9935,0.491969 h -19.23601 z m 11.24151,14.14413 h 4.8459 q 2.60744,0 3.61598,-0.885546 1.03313,-0.910144 1.03313,-2.607439 0,-1.574304 -1.03313,-2.459849 -1.00854,-0.885546 -3.54219,-0.885546 h -4.91969 z m 0,14.168728 h 5.68225 q 2.87802,0 4.05875,-1.008538 1.18072,-1.033136 1.18072,-2.75503 0,-1.598902 -1.18072,-2.558243 -1.15613,-0.98394 -4.08335,-0.98394 h -5.65765 z"
         style="font-style:normal;font-variant:normal;font-weight:normal;font-stretch:normal;font-size:50.3777px;font-family:'Arial Black';-inkscape-font-specification:'Arial Black, ';fill:#ff8c01;fill-opacity:1;stroke:#000000;stroke-width:2.09906;stroke-miterlimit:4;stroke-dasharray:none;stroke-opacity:1"
         id="path1085" />
      <path
         d="m 163.7743,21.291646 h 33.87211 v 8.904652 h -11.3645 V 57.353027 H 175.1388 V 30.196298 h -11.3645 z"
         style="font-style:normal;font-variant:normal;font-weight:normal;font-stretch:normal;font-size:50.3777px;font-family:'Arial Black';-inkscape-font-specification:'Arial Black, ';fill:#ff8c01;fill-opacity:1;stroke:#000000;stroke-width:2.09906;stroke-miterlimit:4;stroke-dasharray:none;stroke-opacity:1"
         id="path1087" />
      <path
         d="m 234.74093,52.088951 q 2.09087,1.451311 2.73043,1.820288 0.95935,0.541167 2.58285,1.254523 l -3.09941,6.248016 q -2.33686,-1.131531 -4.62452,-2.705834 -2.28766,-1.549705 -3.1978,-2.336856 -3.68978,1.598902 -9.24903,1.598902 -8.2159,0 -12.96341,-4.280137 -5.60845,-5.067288 -5.60845,-14.242524 0,-8.904652 4.8951,-13.82435 4.9197,-4.944295 13.72595,-4.944295 8.97845,0 13.84895,4.821303 4.8951,4.821303 4.8951,13.799751 0,7.994508 -3.93576,12.791213 z m -8.53567,-5.706849 q 1.32832,-2.386053 1.32832,-7.133561 0,-5.460864 -2.04168,-7.79772 -2.01707,-2.336856 -5.58386,-2.336856 -3.32079,0 -5.38706,2.386053 -2.06628,2.386053 -2.06628,7.453341 0,5.903637 2.01708,8.28969 2.01708,2.386054 5.53466,2.386054 1.13153,0 2.14007,-0.221387 -1.40212,-1.352917 -4.42773,-2.558242 l 1.74649,-4.009554 q 1.47591,0.270584 2.28766,0.664159 0.83635,0.393576 3.2224,2.066273 0.56577,0.393576 1.22993,0.81175 z"
         style="font-style:normal;font-variant:normal;font-weight:normal;font-stretch:normal;font-size:50.3777px;font-family:'Arial Black';-inkscape-font-specification:'Arial Black, ';fill:#ff8c01;fill-opacity:1;stroke:#000000;stroke-width:2.09906;stroke-miterlimit:4;stroke-dasharray:none;stroke-opacity:1"
         id="path1089" />
      <path
         d="m 244.16216,35.36198 h 9.42122 v -9.470417 h 7.94531 v 9.470417 h 9.47042 v 7.96991 h -9.47042 v 9.42122 h -7.94531 v -9.42122 h -9.42122 z"
         style="font-style:normal;font-variant:normal;font-weight:normal;font-stretch:normal;font-size:50.3777px;font-family:'Arial Black';-inkscape-font-specification:'Arial Black, ';fill:#ff8c01;fill-opacity:1;stroke:#000000;stroke-width:2.09906;stroke-miterlimit:4;stroke-dasharray:none;stroke-opacity:1"
         id="path1091" />
    </g>
  </g>
</svg>
